# xmcd
#
# Track frame offsets: 
#        150
#        9038
#        23475
#        40138
#        54623
#        69870
#        83605
#        103547
#        106564
#        123891
#        136389
#        155511
#        166779
#        185783
#        205205
#        222977
#
# Disc length: 3074 seconds
#
# Revision: 0
# Processed by: cddbd v1.5.2PL0 Copyright (c) Steve Scherf et al.
# Submitted via: ExactAudioCopyFreeDBPlugin 1.0
#
DISCID=c00c0010
DTITLE=Jo2Plainp - Un Jour Ou L'autre
DYEAR=2010
DGENRE=Hip-Hop
TTITLE0=Intro by DJ Toots
TTITLE1=L'erreur Est Humaine feat. Sentine'l
TTITLE2=Destinée feat. Cirillo
TTITLE3=Illegal Facts
TTITLE4=Gladiator feat. Cirillo, Sentin'l and Biggs
TTITLE5=La Zik C'est Ma Vie
TTITLE6=Un Jour Ou L'autre feat. Sentin'l, Cirillo and T'S
TTITLE7=Interlude
TTITLE8=Je M'amuse Avec Les Mots feat. Aspekt
TTITLE9=La Branche De Mon Arbre feat. Sentin'l
TTITLE10=Un Vent Qui Tend A Nous Pencher feat. KaoTik, T'S, Nalyd, C2J
TTITLE10=X and MC Vaness
TTITLE11=Sentiment Mitigé feat. Cirillo
TTITLE12=Un Peu D'humanité feat. Sentin'l and MC Vaness
TTITLE13=J'veux Juste Vivre
TTITLE14=Rage 2 Vaincre feat. Cirillo and Grödash
TTITLE15=Tony Dahmie - 3 Pistes 3 Prises (Bonus Track)
EXTD=
EXTT0=
EXTT1=
EXTT2=
EXTT3=
EXTT4=
EXTT5=
EXTT6=
EXTT7=
EXTT8=
EXTT9=
EXTT10=
EXTT11=
EXTT12=
EXTT13=
EXTT14=
EXTT15=
PLAYORDER=
